<svg width="14" height="15" viewBox="0 0 14 15" fill="none" xmlns="http://www.w3.org/2000/svg">
<path d="M1.03627 6.03977C0.913633 6.03977 0.808401 5.99586 0.72057 5.90803C0.632739 5.82019 0.588823 5.71496 0.588823 5.59233C0.588823 5.4697 0.632739 5.36446 0.72057 5.27663C0.808401 5.1888 0.913633 5.14489 1.03627 5.14489C1.1589 5.14489 1.26413 5.1888 1.35196 5.27663C1.43979 5.36446 1.48371 5.4697 1.48371 5.59233C1.48371 5.67353 1.46299 5.74811 1.42156 5.81605C1.38179 5.884 1.32793 5.93868 1.25999 5.98011C1.1937 6.01989 1.11913 6.03977 1.03627 6.03977ZM4.1373 6.07955C3.7694 6.07955 3.45204 5.99834 3.18524 5.83594C2.92008 5.67188 2.71542 5.44318 2.57124 5.14986C2.42873 4.85488 2.35747 4.51184 2.35747 4.12074C2.35747 3.72964 2.42873 3.38494 2.57124 3.08665C2.71542 2.7867 2.91594 2.55303 3.17281 2.38565C3.43133 2.21662 3.73294 2.1321 4.07764 2.1321C4.2765 2.1321 4.47288 2.16525 4.66677 2.23153C4.86066 2.29782 5.03715 2.40554 5.19624 2.55469C5.35534 2.70218 5.48211 2.89773 5.57657 3.14134C5.67103 3.38494 5.71826 3.6849 5.71826 4.04119V4.28977H2.77508V3.78267H5.12167C5.12167 3.56723 5.07858 3.375 4.99241 3.20597C4.90789 3.03693 4.78692 2.90353 4.62948 2.80575C4.47371 2.70798 4.28976 2.65909 4.07764 2.65909C3.84397 2.65909 3.64179 2.71709 3.4711 2.8331C3.30207 2.94744 3.17198 3.09659 3.08083 3.28054C2.98969 3.46449 2.94411 3.66169 2.94411 3.87216V4.21023C2.94411 4.49858 2.99383 4.74302 3.09326 4.94354C3.19435 5.1424 3.33438 5.29403 3.51336 5.39844C3.69234 5.50118 3.90032 5.55256 4.1373 5.55256C4.29142 5.55256 4.43062 5.53101 4.55491 5.48793C4.68086 5.44318 4.7894 5.37689 4.88055 5.28906C4.97169 5.19957 5.04213 5.08854 5.09184 4.95597L5.6586 5.11506C5.59894 5.30729 5.49868 5.47633 5.35782 5.62216C5.21696 5.76634 5.04295 5.87902 4.8358 5.96023C4.62865 6.03977 4.39582 6.07955 4.1373 6.07955ZM7.19731 3.70312V6H6.61066V2.18182H7.17742V2.77841H7.22714C7.31663 2.58452 7.45252 2.42874 7.63481 2.31108C7.8171 2.19176 8.05242 2.1321 8.34078 2.1321C8.5993 2.1321 8.82551 2.18513 9.0194 2.29119C9.21329 2.3956 9.3641 2.55469 9.47181 2.76847C9.57953 2.98059 9.63339 3.24905 9.63339 3.57386V6H9.04674V3.61364C9.04674 3.31368 8.96885 3.08002 8.81308 2.91264C8.6573 2.74361 8.44352 2.65909 8.17174 2.65909C7.98448 2.65909 7.8171 2.69969 7.66961 2.78089C7.52378 2.8621 7.4086 2.98059 7.32409 3.13636C7.23957 3.29214 7.19731 3.48106 7.19731 3.70312ZM13.6908 2.18182L12.2789 6H11.6823L10.2704 2.18182H10.9067L11.9607 5.22443H12.0005L13.0545 2.18182H13.6908ZM4.23859 10.544V11.0909H2.01132V10.544H4.23859ZM6.87167 13.0795C6.50377 13.0795 6.18642 12.9983 5.91961 12.8359C5.65446 12.6719 5.4498 12.4432 5.30562 12.1499C5.1631 11.8549 5.09184 11.5118 5.09184 11.1207C5.09184 10.7296 5.1631 10.3849 5.30562 10.0866C5.4498 9.7867 5.65032 9.55303 5.90718 9.38565C6.1657 9.21662 6.46731 9.1321 6.81201 9.1321C7.01088 9.1321 7.20725 9.16525 7.40115 9.23153C7.59504 9.29782 7.77153 9.40554 7.93062 9.55469C8.08971 9.70218 8.21649 9.89773 8.31095 10.1413C8.40541 10.3849 8.45264 10.6849 8.45264 11.0412V11.2898H5.50945V10.7827H7.85605C7.85605 10.5672 7.81296 10.375 7.72678 10.206C7.64227 10.0369 7.52129 9.90353 7.36386 9.80575C7.20808 9.70798 7.02413 9.65909 6.81201 9.65909C6.57835 9.65909 6.37617 9.71709 6.20548 9.8331C6.03644 9.94744 5.90635 10.0966 5.81521 10.2805C5.72406 10.4645 5.67849 10.6617 5.67849 10.8722V11.2102C5.67849 11.4986 5.7282 11.743 5.82764 11.9435C5.92873 12.1424 6.06876 12.294 6.24774 12.3984C6.42671 12.5012 6.63469 12.5526 6.87167 12.5526C7.02579 12.5526 7.16499 12.531 7.28928 12.4879C7.41523 12.4432 7.52378 12.3769 7.61492 12.2891C7.70607 12.1996 7.7765 12.0885 7.82622 11.956L8.39298 12.1151C8.33332 12.3073 8.23306 12.4763 8.0922 12.6222C7.95133 12.7663 7.77733 12.879 7.57018 12.9602C7.36303 13.0398 7.13019 13.0795 6.87167 13.0795ZM9.68 9.18182L10.5948 10.7429L11.5095 9.18182H12.1857L10.9527 11.0909L12.1857 13H11.5095L10.5948 11.5185L9.68 13H9.00386L10.2169 11.0909L9.00386 9.18182H9.68Z" fill="white"/>
<rect x="0.188366" y="14.0729" width="18.9712" height="0.3" transform="rotate(-45 0.188366 14.0729)" fill="white"/>
<rect x="0.256114" y="0.185403" width="19.1475" height="0.3" transform="rotate(45 0.256114 0.185403)" fill="white"/>
</svg>
