<svg width="14" height="12" viewBox="0 0 14 12" fill="none" xmlns="http://www.w3.org/2000/svg">
<path d="M1.03627 4.03977C0.913633 4.03977 0.808401 3.99586 0.72057 3.90803C0.632739 3.82019 0.588823 3.71496 0.588823 3.59233C0.588823 3.4697 0.632739 3.36446 0.72057 3.27663C0.808401 3.1888 0.913633 3.14489 1.03627 3.14489C1.1589 3.14489 1.26413 3.1888 1.35196 3.27663C1.43979 3.36446 1.48371 3.4697 1.48371 3.59233C1.48371 3.67353 1.46299 3.74811 1.42156 3.81605C1.38179 3.884 1.32793 3.93868 1.25999 3.98011C1.1937 4.01989 1.11913 4.03977 1.03627 4.03977ZM4.1373 4.07955C3.7694 4.07955 3.45204 3.99834 3.18524 3.83594C2.92008 3.67188 2.71542 3.44318 2.57124 3.14986C2.42873 2.85488 2.35747 2.51184 2.35747 2.12074C2.35747 1.72964 2.42873 1.38494 2.57124 1.08665C2.71542 0.786695 2.91594 0.55303 3.17281 0.385653C3.43133 0.216619 3.73294 0.132102 4.07764 0.132102C4.2765 0.132102 4.47288 0.165246 4.66677 0.231534C4.86066 0.297822 5.03715 0.40554 5.19624 0.554688C5.35534 0.702178 5.48211 0.897727 5.57657 1.14134C5.67103 1.38494 5.71826 1.6849 5.71826 2.04119V2.28977H2.77508V1.78267H5.12167C5.12167 1.56723 5.07858 1.375 4.99241 1.20597C4.90789 1.03693 4.78692 0.903527 4.62948 0.805753C4.47371 0.707978 4.28976 0.659091 4.07764 0.659091C3.84397 0.659091 3.64179 0.717093 3.4711 0.833097C3.30207 0.947443 3.17198 1.09659 3.08083 1.28054C2.98969 1.46449 2.94411 1.66169 2.94411 1.87216V2.21023C2.94411 2.49858 2.99383 2.74302 3.09326 2.94354C3.19435 3.1424 3.33438 3.29403 3.51336 3.39844C3.69234 3.50118 3.90032 3.55256 4.1373 3.55256C4.29142 3.55256 4.43062 3.53101 4.55491 3.48793C4.68086 3.44318 4.7894 3.37689 4.88055 3.28906C4.97169 3.19957 5.04213 3.08854 5.09184 2.95597L5.6586 3.11506C5.59894 3.30729 5.49868 3.47633 5.35782 3.62216C5.21696 3.76634 5.04295 3.87902 4.8358 3.96023C4.62865 4.03977 4.39582 4.07955 4.1373 4.07955ZM7.19731 1.70312V4H6.61066V0.181818H7.17742V0.778409H7.22714C7.31663 0.584517 7.45252 0.428741 7.63481 0.31108C7.8171 0.191761 8.05242 0.132102 8.34078 0.132102C8.5993 0.132102 8.82551 0.185133 9.0194 0.291193C9.21329 0.395597 9.3641 0.554688 9.47181 0.768466C9.57953 0.980587 9.63339 1.24905 9.63339 1.57386V4H9.04674V1.61364C9.04674 1.31368 8.96885 1.08002 8.81308 0.912642C8.6573 0.743608 8.44352 0.659091 8.17174 0.659091C7.98448 0.659091 7.8171 0.699692 7.66961 0.780895C7.52378 0.862097 7.4086 0.980587 7.32409 1.13636C7.23957 1.29214 7.19731 1.48106 7.19731 1.70312ZM13.6908 0.181818L12.2789 4H11.6823L10.2704 0.181818H10.9067L11.9607 3.22443H12.0005L13.0545 0.181818H13.6908ZM4.23859 8.54403V9.09091H2.01132V8.54403H4.23859ZM6.87167 11.0795C6.50377 11.0795 6.18642 10.9983 5.91961 10.8359C5.65446 10.6719 5.4498 10.4432 5.30562 10.1499C5.1631 9.85488 5.09184 9.51184 5.09184 9.12074C5.09184 8.72964 5.1631 8.38494 5.30562 8.08665C5.4498 7.7867 5.65032 7.55303 5.90718 7.38565C6.1657 7.21662 6.46731 7.1321 6.81201 7.1321C7.01088 7.1321 7.20725 7.16525 7.40115 7.23153C7.59504 7.29782 7.77153 7.40554 7.93062 7.55469C8.08971 7.70218 8.21649 7.89773 8.31095 8.14134C8.40541 8.38494 8.45264 8.6849 8.45264 9.04119V9.28977H5.50945V8.78267H7.85605C7.85605 8.56723 7.81296 8.375 7.72678 8.20597C7.64227 8.03693 7.52129 7.90353 7.36386 7.80575C7.20808 7.70798 7.02413 7.65909 6.81201 7.65909C6.57835 7.65909 6.37617 7.71709 6.20548 7.8331C6.03644 7.94744 5.90635 8.09659 5.81521 8.28054C5.72406 8.46449 5.67849 8.66169 5.67849 8.87216V9.21023C5.67849 9.49858 5.7282 9.74302 5.82764 9.94354C5.92873 10.1424 6.06876 10.294 6.24774 10.3984C6.42671 10.5012 6.63469 10.5526 6.87167 10.5526C7.02579 10.5526 7.16499 10.531 7.28928 10.4879C7.41523 10.4432 7.52378 10.3769 7.61492 10.2891C7.70607 10.1996 7.7765 10.0885 7.82622 9.95597L8.39298 10.1151C8.33332 10.3073 8.23306 10.4763 8.0922 10.6222C7.95133 10.7663 7.77733 10.879 7.57018 10.9602C7.36303 11.0398 7.13019 11.0795 6.87167 11.0795ZM9.68 7.18182L10.5948 8.7429L11.5095 7.18182H12.1857L10.9527 9.09091L12.1857 11H11.5095L10.5948 9.51847L9.68 11H9.00386L10.2169 9.09091L9.00386 7.18182H9.68Z" fill="black"/>
</svg>
